<?xml version="1.0" encoding="utf-8"?>
<!-- Generator: Adobe Illustrator 18.0.0, SVG Export Plug-In . SVG Version: 6.00 Build 0)  -->
<!DOCTYPE svg PUBLIC "-//W3C//DTD SVG 1.1//EN" "http://www.w3.org/Graphics/SVG/1.1/DTD/svg11.dtd">
<svg version="1.1" id="Layer_1" xmlns="http://www.w3.org/2000/svg" xmlns:xlink="http://www.w3.org/1999/xlink" x="0px" y="0px"
	 width="841.9px" height="595.3px" viewBox="0 0 841.9 595.3" enable-background="new 0 0 841.9 595.3" xml:space="preserve">
<g>
	<rect y="1.8" fill="#D7E8F7" width="841.9" height="593.5"/>
	<g>
		<g>
			<g>
				<g>
					<rect x="556.8" y="70.4" fill="#8CC6EC" width="22" height="91.4"/>
				</g>
				<g>
					<rect x="578.8" y="70.4" fill="#8CC6EC" width="22" height="91.4"/>
				</g>
				<g>
					<rect x="600.8" y="70.4" fill="#8CC6EC" width="22" height="91.4"/>
				</g>
				<g>
					<rect x="622.8" y="70.4" fill="#8CC6EC" width="22" height="91.4"/>
				</g>
				<g>
					
						<rect x="617.9" y="103.9" transform="matrix(-0.1736 -0.9848 0.9848 -0.1736 665.6322 788.3649)" fill="#8CC6EC" width="91.4" height="22"/>
				</g>
			</g>
			<rect x="698.5" y="87.1" fill="#8CC6EC" width="3.8" height="80.7"/>
			<rect x="517.2" y="161.9" fill="#8CC6EC" width="279.3" height="18.6"/>
		</g>
		<polygon fill="#8CC6EC" points="451.7,90.7 452.6,68.9 45.4,68 46.3,90.7 56.8,90.7 65.1,383.4 46.3,383.4 47.1,396.8 214,396.8 
			214.1,412.3 222.9,412.3 189.4,527.3 206.3,527.3 241.9,412.3 256,412.3 291.6,527.3 308.5,527.3 275.1,412.3 283.9,412.3 
			284,396.8 450.8,396.8 451.7,382.3 430.7,382.3 441.2,90.7 		"/>
	</g>
	<g>
		<path fill="#8CC6EC" d="M95.9,522.3c0,0,200.2-12,343.2-12s314.6,12,314.6,12s-165.9,16-308.8,16
			C301.8,538.3,95.9,522.3,95.9,522.3z"/>
		<g>
			<g>
				<g>
					<g>
						<g>
							<path fill="#414042" d="M183.5,484.5L183.5,484.5l121.5,0v0c0-10.1-8.2-18.3-18.3-18.3h-84.9
								C191.7,466.2,183.5,474.4,183.5,484.5z"/>
							<g>
								<g>
									<circle fill="#A7A9AC" cx="195.6" cy="505.1" r="19.2"/>
									<circle fill="#E6E7E8" cx="195.6" cy="505.1" r="6.2"/>
								</g>
								<path fill="#414042" d="M173.6,500.6L173.6,500.6l44.1,0v0c0-10.1-8.2-18.3-18.3-18.3h-7.5
									C181.8,482.3,173.6,490.5,173.6,500.6z"/>
							</g>
							<g>
								<g>
									<circle fill="#A7A9AC" cx="292.3" cy="505.1" r="19.2"/>
									<circle fill="#E6E7E8" cx="292.3" cy="505.1" r="6.2"/>
								</g>
								<path fill="#414042" d="M270.2,500.6L270.2,500.6l44.1,0v0c0-10.1-8.2-18.3-18.3-18.3h-7.5
									C278.4,482.3,270.2,490.5,270.2,500.6z"/>
							</g>
						</g>
						<rect x="237.9" y="401.3" fill="#414042" width="12" height="72.1"/>
					</g>
					<g>
						<rect x="185" y="301" fill="#D1D3D4" width="10.1" height="89"/>
						<rect x="251.2" y="301" fill="#D1D3D4" width="10.1" height="89"/>
					</g>
					<g>
						<path fill="#EF4136" d="M173.1,390L173.1,390c0,8,6.5,14.5,14.5,14.5h112.4c8,0,14.5-6.5,14.5-14.5v0c0-8-6.5-14.5-14.5-14.5
							H187.6C179.5,375.5,173.1,382,173.1,390z"/>
						<path fill="#F68F75" d="M173.1,390L173.1,390c0,8,6.5,14.5,14.5,14.5h41.8c8,0,14.5-6.5,14.5-14.5v0c0-8-6.5-14.5-14.5-14.5
							h-41.8C179.5,375.5,173.1,382,173.1,390z"/>
					</g>
					<path fill="#EF4136" d="M150.4,210.7v92.1c0,7.5,6.1,13.5,13.5,13.5h108c7.5,0,13.5-6.1,13.5-13.5v-92.1
						c0-7.5-6.1-13.5-13.5-13.5h-108C156.5,197.2,150.4,203.3,150.4,210.7z"/>
					<path fill="#F68F75" d="M150.4,210.7v92.1c0,7.5,6.1,13.5,13.5,13.5h0c7.5,0,13.5-6.1,13.5-13.5v-92.1
						c0-7.5-6.1-13.5-13.5-13.5h0C156.5,197.2,150.4,203.3,150.4,210.7z"/>
				</g>
				<g>
					<path fill="#FBCFAE" d="M376.8,279.3c0,0,8.3-9.4,10.1-10.3c1.8-0.9,17.7,5.2,19.5,8.6c1.8,3.3-12.8-3.2-12.8-3.2
						s10.9,5.9,11.8,9.6c0.9,3.7-12-4.5-12-4.5s7.1,7.8,7.5,11.2c0.4,3.4-9-6.7-9-6.7s4.6,6.6,4.3,9.4c-0.3,2.8-7.5-6.6-7.5-6.6
						s-4.8,6.8-12.1,4L376.8,279.3z"/>
					<path fill="#FFFFFF" d="M272.4,219.4c0,0-15,12.7,0.9,40.3s31,31.1,37.6,31.1c6.7,0,65.9,0,65.9,0v-11.4l-63.4-10.1
						C313.4,269.2,280.2,221.9,272.4,219.4z"/>
					<g>
						<path fill="#F69C9B" d="M340.7,339.7l-60.2-13.9v42h52.4c-4.9,14.5-6.8,37.3,5,70.7c0,0-4.1,16.2-4.4,24.9
							c-0.3,8.7,23.4,15.6,23.4,15.6l-7.2-43.6l10.6-66.5C362.5,355.5,353.9,342.8,340.7,339.7z"/>
						<path fill="#282F39" d="M354,461.8c-7.2,0.9-10.7,4-10.7,4l-9.2-9c-0.4,2.4-0.6,4.7-0.7,6.6c-0.3,8.7,23.4,15.6,23.4,15.6
							L354,461.8z"/>
					</g>
					<g>
						<path fill="#FBCFAE" d="M331.1,343.6L271,329.7v42h52.4c-4.9,14.5-6.8,37.3,5,70.7c0,0-4.1,16.2-4.4,24.9
							c-0.3,8.7,23.4,15.6,23.4,15.6l-7.2-43.6l10.6-66.5C352.9,359.4,344.3,346.7,331.1,343.6z"/>
						<path fill="#282F39" d="M344.5,465.8c-7.2,0.9-10.7,4-10.7,4l-9.2-9c-0.4,2.4-0.6,4.7-0.7,6.6c-0.3,8.7,23.4,15.6,23.4,15.6
							L344.5,465.8z"/>
					</g>
					<g>
						<path fill="#414042" d="M204.8,83c0,0-1.4-20.7-23.4-25.3s-38.7,14.7-38.7,42s21.1,43,21.1,70.3C163.9,170,218.9,143,204.8,83
							z"/>
						<path fill="#EF4136" d="M204.8,89.1c0,0-1-6.6-8.1-10.2c-7.1-3.7-21.2-1.7-24.9,6.5c-3.8,8.2-4.4,25.1,10.8,26.2L204.8,89.1z"
							/>
						<path fill="#414042" d="M274.9,111.3c0,0-3.1-20.3-24.9-31.6s-65.3-5.3-76.9,20s-13.5,77.6,33.4,80.8L274.9,111.3z"/>
						<path fill="#FBCFAE" d="M277.2,126.9c0,0-4.3,18.8,0,31.7c5.1,15.4-0.9,27.5-23.3,32.2c-22.4,4.7-57.9-9.8-63-28.5
							c-4.9-18-10.4-59.4,27.5-69.6C258.3,82.1,280,105.5,277.2,126.9z"/>
						<g>
							<g>
								<g>
									<path fill="#282F39" d="M236.5,146c0,0-5.1-8.6-9.8-8.2c-4.7,0.4-8.6,12-8.6,12l-9.8-4.8l8.5,1c0,0,0.2-12.4,7.9-13.7
										C232.3,131,238,142.1,236.5,146z"/>
								</g>
								<g>
									<path fill="#282F39" d="M255.2,144.3c0,0,3.6-9.4,8.2-9.8c4.7-0.4,10.6,10.3,10.6,10.3l8.8-6.4l-8.2,2.1
										c0,0-2.3-11.8-10.1-11.8C256.7,128.9,253.1,140.8,255.2,144.3z"/>
								</g>
							</g>
						</g>
						<path fill="#E48A6F" d="M248.1,155.3l11.5-4c0,0-2.7,4-4.9,5.3C252.4,157.8,248.1,155.3,248.1,155.3z"/>
						<g>
							<g>
								<path fill="#414042" d="M232.7,121.2c0,0-6.4-3.3-10.9-2.9c-4.5,0.4-9.6,8.2-9.6,8.2s1.8-9.7,9.3-11.7
									C229,112.9,232.7,121.2,232.7,121.2z"/>
								<path fill="#414042" d="M255.5,119.6c0,0,5.7-4.3,10.2-4.7c4.5-0.4,10.8,6.4,10.8,6.4s-3.4-9.2-11.2-9.9
									C257.7,110.7,255.5,119.6,255.5,119.6z"/>
							</g>
						</g>
						<g>
							<path fill="#F16573" d="M224.4,164.6c0,0,51.8-10.9,41.6-1.6c0,0,3.4,14.1-6.4,16.8C243.7,184.2,224.4,164.6,224.4,164.6z"/>
							<path fill="#FFFFFF" d="M228.8,165.2c0,0,21.3,0.3,37.3-2.2c0,0-1.4,11.8-11.4,13.7C244.6,178.6,228.8,165.2,228.8,165.2z"/>
						</g>
						<path fill="#FBCFAE" d="M194.1,154c0,0-21.7-21.9-21-7.9c1.4,26.6,23.8,20.1,23.8,20.1L194.1,154z"/>
					</g>
					<path fill="#FBCFAE" d="M272,219.4L272,219.4c-41.1-2.8-29.6-38.9-29.6-38.9h-6.2H230h-6.2c0,0,11.5,36.1-29.6,38.9l0,0
						l28.3,90.6H272C281.3,265.8,272,219.4,272,219.4z"/>
					<path fill="#FFFFFF" d="M272,219.4c-3.5-0.2-6.6-0.7-9.3-1.4c-0.9,4.6-5.1,8.9-16.8,9.8c-16.8,1.3-28.6-6.3-35.2-12.3
						c-4.2,2-9.6,3.4-16.5,3.9l28.3,90.6H272c3.1-15,11.4-44.8,11.4-56.2C283.4,240.1,272,219.4,272,219.4z"/>
					<path fill="#414042" d="M254.2,214.8l-1.8,25.5l-35-29.3c-4.7,4.3-12,7.6-23.2,8.3l28.3,90.6H272c3.6-17.1,11.4-45.4,11.4-56.2
						c0-14-11.4-34.4-11.4-34.4C264.4,218.8,258.6,217.2,254.2,214.8z"/>
					<g>
						<g>
							<circle fill="#414042" cx="250.5" cy="246.3" r="1.8"/>
							<circle fill="#414042" cx="250.6" cy="257.8" r="1.8"/>
							<circle fill="#414042" cx="250.7" cy="269.4" r="1.8"/>
						</g>
					</g>
					<path fill="#FBCFAE" d="M298.6,279.3c0,0,8.3-9.4,10.1-10.3c1.8-0.9,17.7,5.2,19.5,8.6c1.8,3.3-12.8-3.2-12.8-3.2
						s10.9,5.9,11.8,9.6c0.9,3.7-12-4.5-12-4.5s7.1,7.8,7.5,11.2c0.4,3.4-9-6.7-9-6.7s4.6,6.6,4.3,9.4c-0.3,2.8-7.5-6.6-7.5-6.6
						s-4.8,6.8-12.1,4L298.6,279.3z"/>
					<path fill="#414042" d="M222.5,309.9c0,0-28.8,66.6,0.9,66.6s93.8,0,93.8,0l15.7-46.7L272,309.9L222.5,309.9z"/>
					<path fill="#6D6E71" d="M222.5,309.9l-3.1,7.9c0,0,26,3.9,40.2,3.9c14.2,0,23.3-9,23.3-9l-10.9-2.8L222.5,309.9z"/>
					<path fill="#FFFFFF" d="M194.2,219.4c0,0-15,12.7,0.9,40.3s31,31.1,37.6,31.1s65.9,0,65.9,0v-11.4l-63.4-10.1
						C235.2,269.2,202,221.9,194.2,219.4z"/>
					<path fill="#FBCFAE" d="M376.8,279.3c0,0,3.5,3.5,7.5,5.3s9.2,1.7,10.1,3.4s-10.3,2.7-10.3,2.7s-2.4,1.9-7.3,0.1V279.3z"/>
				</g>
				<g>
					<path fill="#414042" d="M183.1,141l25.1-12.1l37.6-2.3l2.2,4.5l7.4-0.1v-4.4l27.9,0.8c0,0,0.8,21-3.3,24
						c-4.1,2.9-16.8,2-20.6,0c-3.8-2-3.9-14.4-3.9-14.4h-7.6c0,0,1.5,11.1-2.2,14.4c-3.7,3.4-23.7,4.6-29.4,2.8
						c-5.7-1.8-8.2-19.1-8.2-19.1l-23.3,9.9L183.1,141z"/>
					<g>
						<path fill="#D7E8F7" d="M210.5,131.5c0,0,3.2,19.2,6.5,20.7c3.3,1.5,26.5-0.5,28-2.4s1.5-14.8,0-20.9L210.5,131.5z"/>
						<path fill="#D7E8F7" d="M257.6,128.8c0,0,1,18.4,3.1,20.9c2.1,2.5,18.5,0.9,19.5-0.8s2-20.2,2-20.2H257.6z"/>
					</g>
				</g>
			</g>
			<g>
				<rect x="342.3" y="278.8" fill="#BCBEC0" width="103.3" height="10.1"/>
				<polygon fill="#D1D3D4" points="433.3,189.2 413,281.4 333,281.4 333,291.5 516.3,291.5 516.3,281.4 540.6,192.8 				"/>
				<rect x="413" y="281.4" fill="#E6E7E8" width="103.3" height="10.1"/>
				<polygon fill="#E6E7E8" points="433.3,189.2 436.8,191.8 416,281.4 413,281.4 				"/>
			</g>
			<g>
				<polygon fill="#A97C50" points="229.2,298.3 235.1,524.3 368,524.3 368,298.5 				"/>
				<polygon fill="#C49A6C" points="368,298.5 368,524.3 628.1,524.3 631.4,298.5 				"/>
				<polygon fill="#C49A6C" points="222.5,290.7 636.2,290.8 636.2,304 222.5,305.9 				"/>
			</g>
		</g>
	</g>
</g>
</svg>
